<?xml version="1.0" encoding="utf-8"?>
<!-- Generator: Adobe Illustrator 16.0.4, SVG Export Plug-In . SVG Version: 6.00 Build 0)  -->
<!DOCTYPE svg PUBLIC "-//W3C//DTD SVG 1.1//EN" "http://www.w3.org/Graphics/SVG/1.1/DTD/svg11.dtd">
<svg version="1.1" id="Layer_1" xmlns="http://www.w3.org/2000/svg" xmlns:xlink="http://www.w3.org/1999/xlink" x="0px" y="0px"
	 width="37.833px" height="32.276px" viewBox="0 0 37.833 32.276" enable-background="new 0 0 37.833 32.276" xml:space="preserve">
<path fill="#0079FF" d="M36.333,3.223H21.751c-0.089,0-0.176,0.011-0.261,0.026c-0.619-1.851-2.348-3.193-4.406-3.193
	s-3.787,1.342-4.406,3.193c-0.085-0.015-0.172-0.026-0.261-0.026H1.5c-0.828,0-1.5,0.671-1.5,1.5s0.672,1.5,1.5,1.5h10.917
	c0.089,0,0.176-0.011,0.261-0.026c0.619,1.851,2.348,3.193,4.406,3.193s3.787-1.342,4.406-3.193
	c0.085,0.015,0.172,0.026,0.261,0.026h14.582c0.828,0,1.5-0.671,1.5-1.5S37.161,3.223,36.333,3.223z M17.084,7.077
	c-1.3,0-2.354-1.054-2.354-2.354c0-1.3,1.055-2.354,2.354-2.354s2.354,1.054,2.354,2.354C19.438,6.022,18.384,7.077,17.084,7.077z"
	/>
<path fill="#0079FF" d="M36.333,26.11H15.641c-0.089,0-0.176,0.012-0.261,0.026c-0.619-1.851-2.347-3.193-4.406-3.193
	c-2.059,0-3.786,1.343-4.405,3.193c-0.085-0.015-0.172-0.026-0.261-0.026H1.5c-0.828,0-1.5,0.672-1.5,1.5s0.672,1.5,1.5,1.5h4.808
	c0.089,0,0.176-0.012,0.261-0.026c0.619,1.851,2.347,3.192,4.405,3.192c2.06,0,3.787-1.342,4.406-3.192
	c0.085,0.015,0.172,0.026,0.261,0.026h20.692c0.828,0,1.5-0.672,1.5-1.5S37.161,26.11,36.333,26.11z M10.974,29.964
	c-1.3,0-2.354-1.055-2.354-2.354c0-1.3,1.055-2.354,2.354-2.354s2.354,1.054,2.354,2.354C13.328,28.909,12.273,29.964,10.974,29.964
	z"/>
<path fill="#0079FF" d="M36.333,14.667h-3.668c-0.089,0-0.176,0.011-0.26,0.026c-0.62-1.851-2.347-3.193-4.406-3.193
	c-2.059,0-3.786,1.342-4.405,3.193c-0.085-0.015-0.172-0.026-0.261-0.026H1.5c-0.828,0-1.5,0.671-1.5,1.5s0.672,1.5,1.5,1.5h21.833
	c0.089,0,0.176-0.012,0.261-0.026c0.619,1.851,2.348,3.192,4.405,3.192c2.06,0,3.786-1.342,4.406-3.192
	c0.084,0.015,0.171,0.026,0.26,0.026h3.668c0.828,0,1.5-0.671,1.5-1.5S37.161,14.667,36.333,14.667z M27.999,18.521
	c-1.3,0-2.354-1.055-2.354-2.354c0-1.3,1.055-2.354,2.354-2.354s2.354,1.054,2.354,2.354C30.354,17.466,29.299,18.521,27.999,18.521
	z"/>
</svg>
