<?xml version="1.0" encoding="utf-8"?>
<!-- Generator: Adobe Illustrator 16.0.4, SVG Export Plug-In . SVG Version: 6.00 Build 0)  -->
<!DOCTYPE svg PUBLIC "-//W3C//DTD SVG 1.1//EN" "http://www.w3.org/Graphics/SVG/1.1/DTD/svg11.dtd">
<svg version="1.1" id="Layer_1" xmlns:sketch="http://www.bohemiancoding.com/sketch/ns"
	 xmlns="http://www.w3.org/2000/svg" xmlns:xlink="http://www.w3.org/1999/xlink" x="0px" y="0px" width="70px" height="28px"
	 viewBox="0 0 70 28" enable-background="new 0 0 70 28" xml:space="preserve">
<title>Artboard</title>
<desc>Created with Sketch.</desc>
<g id="Page-1" sketch:type="MSPage">
	<g id="Artboard" sketch:type="MSArtboardGroup">
		<g id="NHS" transform="translate(1.000000, 2.000000)" sketch:type="MSLayerGroup">
			<path id="S" sketch:type="MSShapeGroup" fill="#005EB8" d="M65.175,5.928c-1.182-0.558-2.788-1.049-5.052-1.049
				c-2.428,0-4.396,0.359-4.396,2.196c0,3.25,8.893,2.035,8.893,8.988c0,6.331-5.873,7.972-11.188,7.972
				c-2.361,0-5.085-0.558-7.087-1.18l1.444-4.66c1.213,0.788,3.641,1.313,5.643,1.313c1.902,0,4.887-0.36,4.887-2.723
				c0-3.675-8.889-2.297-8.889-8.758c0-5.905,5.182-7.678,10.201-7.678c2.821,0,5.479,0.297,7.021,1.018L65.175,5.928"/>
			<path id="H" sketch:type="MSShapeGroup" fill="#005EB8" d="M29.519,0.744h6.133l-1.804,8.76h7.25l1.804-8.76h6.135L44.28,23.641
				h-6.135l2.034-9.808h-7.249l-2.035,9.808h-6.134L29.519,0.744"/>
			<path id="N" sketch:type="MSShapeGroup" fill="#005EB8" d="M5.872,0.744h7.642l4.692,15.879h0.064l3.215-15.879h5.773
				l-4.855,22.896h-7.61l-4.79-15.842H9.939L6.757,23.641H0.984L5.872,0.744"/>
		</g>
	</g>
</g>
</svg>
